<svg width="158" height="69" viewBox="0 0 158 69" fill="none" xmlns="http://www.w3.org/2000/svg">
<path d="M0 20H148C153.523 20 158 24.4772 158 30V59C158 64.5228 153.523 69 148 69H10C4.47715 69 0 64.5228 0 59V20Z" fill="#E05151"/>
<path d="M21.5484 10.1627C22.3239 5.61368 18.4788 1.49214 16.4594 0C17.9134 6.53316 15.0054 7.50104 12.0974 10.1627C9.18934 12.8244 10.5 11.5 8 15C5.98261 17.8244 6.96795 22.8257 7.493 24.5598C5.55433 22.1402 5.312 16.6959 5.43316 14.2762C4.70616 15.0827 3.20368 18.0509 3.00981 23.471C2.76748 30.2461 7.00832 36.6583 16.4594 37.8681C24.0202 38.836 28.0106 34.2386 29.0607 31.8189C27.1625 33.0288 22.2754 35.0855 17.9134 33.6337C12.4609 31.8189 11.9762 29.3992 12.4609 25.7697C12.9455 22.1402 19.4886 19.8415 22.1542 24.5598C24.2868 28.3346 21.8311 30.972 20.3367 31.8189C24.2141 33.8756 32.5746 29.6412 31.9688 20.9303C31.4841 13.9616 27.324 11.2516 25.3046 10.7676C25.9831 12.7034 25.9104 14.5585 25.7892 15.244C25.7892 18.3896 19.9732 19.9624 18.398 15.9699C17.1379 12.776 19.9732 10.7676 21.5484 10.1627Z" fill="#E05151"/>
<path d="M13.1798 36.1442V33.9958H18.3556L18.5265 35.5338C18.9171 34.9642 19.3851 34.5247 19.9303 34.2155C20.4755 33.9062 21.1103 33.7516 21.8346 33.7516C23.4703 33.7516 24.7399 34.3905 25.6432 35.6681C26.5465 36.9458 26.9982 38.6263 26.9982 40.7096V40.966C26.9982 42.9191 26.5465 44.4897 25.6432 45.6779C24.7399 46.866 23.4785 47.4601 21.859 47.4601C21.1673 47.4601 20.5529 47.334 20.0157 47.0817C19.4786 46.8213 19.0188 46.4429 18.6364 45.9464V49.7672L20.3575 50.1335V52.2819H13.3629V50.1335L15.0841 49.7672V36.5104L13.1798 36.1442ZM23.4337 40.7096C23.4337 39.4645 23.2262 38.4554 22.8112 37.6823C22.3961 36.9092 21.7614 36.5226 20.9069 36.5226C20.3698 36.5226 19.91 36.6325 19.5275 36.8522C19.1531 37.0719 18.8561 37.3852 18.6364 37.7921V43.5783C18.8561 43.9526 19.1531 44.2375 19.5275 44.4328C19.91 44.6281 20.3779 44.7257 20.9313 44.7257C21.7939 44.7257 22.4246 44.388 22.8234 43.7126C23.2303 43.0371 23.4337 42.1216 23.4337 40.966V40.7096ZM28.5851 40.4777C28.5851 38.5083 29.1344 36.897 30.233 35.6437C31.3398 34.3823 32.8657 33.7516 34.8107 33.7516C36.7638 33.7516 38.2897 34.3782 39.3883 35.6315C40.4951 36.8848 41.0485 38.5002 41.0485 40.4777V40.734C41.0485 42.7197 40.4951 44.3392 39.3883 45.5924C38.2897 46.8376 36.7719 47.4601 34.8351 47.4601C32.8738 47.4601 31.3398 46.8376 30.233 45.5924C29.1344 44.3392 28.5851 42.7197 28.5851 40.734V40.4777ZM32.1495 40.734C32.1495 41.9385 32.3611 42.9069 32.7843 43.6393C33.2075 44.3636 33.8911 44.7257 34.8351 44.7257C35.7547 44.7257 36.4261 44.3595 36.8492 43.6271C37.2806 42.8947 37.4962 41.9303 37.4962 40.734V40.4777C37.4962 39.3058 37.2806 38.3496 36.8492 37.609C36.4179 36.8685 35.7384 36.4982 34.8107 36.4982C33.8829 36.4982 33.2075 36.8685 32.7843 37.609C32.3611 38.3496 32.1495 39.3058 32.1495 40.4777V40.734ZM41.9762 30.3092V28.1608H47.4327V39.196H48.2262L50.277 36.3029L49.1173 36.1442V33.9958H55.6115V36.1442L54.049 36.4982L51.6686 39.7697L55.0011 44.7868L56.3561 45.0675V47.2038H50.2526V45.0675L50.985 44.9455L48.9586 41.674H47.4327V44.7013L48.9708 45.0675V47.2038H42.1593V45.0675L43.8805 44.7013V30.6754L41.9762 30.3092ZM63.6925 47.4601C61.7882 47.4601 60.2664 46.8498 59.1271 45.6291C57.9878 44.4084 57.4181 42.8581 57.4181 40.9782V40.4899C57.4181 38.5286 57.9552 36.9132 59.0294 35.6437C60.1118 34.3742 61.5603 33.7435 63.3751 33.7516C65.1573 33.7516 66.5408 34.2887 67.5255 35.3629C68.5102 36.4372 69.0026 37.8898 69.0026 39.7209V41.6618H61.1168L61.0924 41.735C61.1575 42.6058 61.4464 43.3219 61.9591 43.8835C62.4799 44.445 63.1839 44.7257 64.0709 44.7257C64.8603 44.7257 65.5154 44.6484 66.0363 44.4938C66.5571 44.331 67.1267 44.0788 67.7452 43.737L68.7096 45.9342C68.1643 46.3655 67.4563 46.7277 66.5856 47.0207C65.7229 47.3136 64.7586 47.4601 63.6925 47.4601ZM63.3751 36.4982C62.7159 36.4982 62.1951 36.7505 61.8126 37.255C61.4301 37.7596 61.1941 38.4228 61.1046 39.2448L61.1412 39.3058H65.5114V38.9884C65.5114 38.2316 65.3323 37.6294 64.9742 37.1818C64.6243 36.7261 64.0913 36.4982 63.3751 36.4982ZM63.4728 28.8566H67.2448L67.2692 28.9298L63.9 32.1037H61.0436L63.4728 28.8566ZM87.6061 38.5368H85.2135L84.8351 36.8888C84.5909 36.6935 84.2817 36.5308 83.9073 36.4005C83.5411 36.2703 83.1342 36.2052 82.6866 36.2052C82.06 36.2052 81.5636 36.3476 81.1974 36.6325C80.8312 36.9092 80.6481 37.2591 80.6481 37.6823C80.6481 38.081 80.823 38.4147 81.173 38.6833C81.5229 38.9437 82.2228 39.1756 83.2726 39.3791C84.9083 39.7046 86.1209 40.1847 86.9103 40.8195C87.6997 41.4461 88.0944 42.3128 88.0944 43.4196C88.0944 44.6077 87.5817 45.5802 86.5563 46.3371C85.539 47.0858 84.1962 47.4601 82.528 47.4601C81.5107 47.4601 80.5748 47.3136 79.7203 47.0207C78.874 46.7196 78.1212 46.2923 77.462 45.7389L77.4254 42.7726H79.9156L80.4039 44.4938C80.6155 44.6728 80.9044 44.8071 81.2706 44.8966C81.6368 44.978 82.0193 45.0187 82.4181 45.0187C83.1424 45.0187 83.6917 44.8885 84.066 44.6281C84.4485 44.3677 84.6398 44.0137 84.6398 43.5661C84.6398 43.1754 84.4485 42.8377 84.066 42.5529C83.6836 42.2681 82.9796 42.0158 81.9542 41.7961C80.3999 41.4787 79.2239 41.0107 78.4264 40.3922C77.637 39.7656 77.2423 38.9152 77.2423 37.841C77.2423 36.7342 77.698 35.7821 78.6095 34.9845C79.521 34.1789 80.819 33.776 82.5035 33.776C83.5289 33.776 84.4974 33.9144 85.4088 34.1911C86.3284 34.4678 87.0486 34.8218 87.5695 35.2531L87.6061 38.5368ZM94.9547 30.7609V33.9958H97.274V36.4982H94.9547V43.2243C94.9547 43.737 95.0605 44.1032 95.2721 44.3229C95.4837 44.5426 95.7685 44.6525 96.1266 44.6525C96.3707 44.6525 96.5823 44.6444 96.7614 44.6281C96.9485 44.6037 97.156 44.567 97.3839 44.5182L97.6891 47.0939C97.2903 47.216 96.8956 47.3055 96.505 47.3625C96.1144 47.4276 95.6912 47.4601 95.2355 47.4601C94.0066 47.4601 93.0586 47.1224 92.3912 46.4469C91.7321 45.7715 91.4025 44.7013 91.4025 43.2365V36.4982H89.4615V33.9958H91.4025V30.7609H94.9547ZM98.6534 40.4777C98.6534 38.5083 99.2028 36.897 100.301 35.6437C101.408 34.3823 102.934 33.7516 104.879 33.7516C106.832 33.7516 108.358 34.3782 109.457 35.6315C110.563 36.8848 111.117 38.5002 111.117 40.4777V40.734C111.117 42.7197 110.563 44.3392 109.457 45.5924C108.358 46.8376 106.84 47.4601 104.903 47.4601C102.942 47.4601 101.408 46.8376 100.301 45.5924C99.2028 44.3392 98.6534 42.7197 98.6534 40.734V40.4777ZM102.218 40.734C102.218 41.9385 102.429 42.9069 102.853 43.6393C103.276 44.3636 103.959 44.7257 104.903 44.7257C105.823 44.7257 106.494 44.3595 106.918 43.6271C107.349 42.8947 107.565 41.9303 107.565 40.734V40.4777C107.565 39.3058 107.349 38.3496 106.918 37.609C106.486 36.8685 105.807 36.4982 104.879 36.4982C103.951 36.4982 103.276 36.8685 102.853 37.609C102.429 38.3496 102.218 39.3058 102.218 40.4777V40.734ZM112.936 45.0675L114.645 44.7013V36.5104L112.753 36.1442V33.9958H117.965L118.124 35.9245C118.433 35.2409 118.832 34.7078 119.32 34.3253C119.808 33.9429 120.374 33.7516 121.017 33.7516C121.204 33.7516 121.399 33.7679 121.603 33.8004C121.814 33.8249 121.989 33.8574 122.128 33.8981L121.749 37.1452L120.284 37.1086C119.763 37.1086 119.332 37.2103 118.99 37.4137C118.649 37.6172 118.388 37.9061 118.209 38.2804V44.7013L119.918 45.0675V47.2038H112.936V45.0675ZM129.269 47.4601C127.364 47.4601 125.843 46.8498 124.703 45.6291C123.564 44.4084 122.994 42.8581 122.994 40.9782V40.4899C122.994 38.5286 123.531 36.9132 124.606 35.6437C125.688 34.3742 127.137 33.7435 128.951 33.7516C130.734 33.7516 132.117 34.2887 133.102 35.3629C134.086 36.4372 134.579 37.8898 134.579 39.7209V41.6618H126.693L126.669 41.735C126.734 42.6058 127.023 43.3219 127.535 43.8835C128.056 44.445 128.76 44.7257 129.647 44.7257C130.436 44.7257 131.092 44.6484 131.612 44.4938C132.133 44.331 132.703 44.0788 133.321 43.737L134.286 45.9342C133.741 46.3655 133.033 46.7277 132.162 47.0207C131.299 47.3136 130.335 47.4601 129.269 47.4601ZM128.951 36.4982C128.292 36.4982 127.771 36.7505 127.389 37.255C127.006 37.7596 126.77 38.4228 126.681 39.2448L126.717 39.3058H131.088V38.9884C131.088 38.2316 130.908 37.6294 130.55 37.1818C130.2 36.7261 129.667 36.4982 128.951 36.4982Z" fill="white"/>
<path d="M84.7028 59.6725H80.2809V64.2038H77.5387V52.8288H85.1481V54.946H80.2809V57.5631H84.7028V59.6725ZM97.2106 64.2038H94.4762V52.8288H97.2106V64.2038ZM111.343 60.1881H109.859V64.2038H107.117V52.8288H111.593C112.942 52.8288 113.997 53.1282 114.757 53.7272C115.518 54.3262 115.898 55.1725 115.898 56.2663C115.898 57.0579 115.737 57.7142 115.414 58.235C115.096 58.7558 114.596 59.1777 113.914 59.5006L116.289 64.0866V64.2038H113.351L111.343 60.1881ZM109.859 58.071H111.593C112.114 58.071 112.505 57.9355 112.765 57.6647C113.031 57.3887 113.164 57.0058 113.164 56.5163C113.164 56.0267 113.031 55.6439 112.765 55.3678C112.5 55.0866 112.109 54.946 111.593 54.946H109.859V58.071ZM132.609 59.3835H128.297V62.0944H133.39V64.2038H125.554V52.8288H133.406V54.946H128.297V57.3444H132.609V59.3835Z" fill="#9F0000"/>
</svg>
