<svg width="148" height="49" viewBox="0 0 148 49" fill="none" xmlns="http://www.w3.org/2000/svg">
<rect width="148" height="49" rx="10" fill="#E05151"/>
<path d="M14.5005 19.9404V17.792H19.6763L19.8472 19.3301C20.2378 18.7604 20.7057 18.321 21.251 18.0117C21.7962 17.7025 22.431 17.5479 23.1553 17.5479C24.791 17.5479 26.0605 18.1867 26.9639 19.4644C27.8672 20.742 28.3188 22.4225 28.3188 24.5059V24.7622C28.3188 26.7153 27.8672 28.286 26.9639 29.4741C26.0605 30.6623 24.7992 31.2563 23.1797 31.2563C22.488 31.2563 21.8735 31.1302 21.3364 30.8779C20.7993 30.6175 20.3395 30.2391 19.957 29.7427V33.5635L21.6782 33.9297V36.0781H14.6836V33.9297L16.4048 33.5635V20.3066L14.5005 19.9404ZM24.7544 24.5059C24.7544 23.2607 24.5469 22.2516 24.1318 21.4785C23.7168 20.7054 23.082 20.3188 22.2275 20.3188C21.6904 20.3188 21.2306 20.4287 20.8481 20.6484C20.4738 20.8682 20.1768 21.1815 19.957 21.5884V27.3745C20.1768 27.7489 20.4738 28.0337 20.8481 28.229C21.2306 28.4243 21.6986 28.522 22.252 28.522C23.1146 28.522 23.7453 28.1842 24.144 27.5088C24.5509 26.8333 24.7544 25.9178 24.7544 24.7622V24.5059ZM29.9058 24.2739C29.9058 22.3045 30.4551 20.6932 31.5537 19.4399C32.6605 18.1785 34.1864 17.5479 36.1313 17.5479C38.0845 17.5479 39.6104 18.1745 40.709 19.4277C41.8158 20.681 42.3691 22.2964 42.3691 24.2739V24.5303C42.3691 26.516 41.8158 28.1354 40.709 29.3887C39.6104 30.6338 38.0926 31.2563 36.1558 31.2563C34.1945 31.2563 32.6605 30.6338 31.5537 29.3887C30.4551 28.1354 29.9058 26.516 29.9058 24.5303V24.2739ZM33.4702 24.5303C33.4702 25.7347 33.6818 26.7031 34.105 27.4355C34.5282 28.1598 35.2118 28.522 36.1558 28.522C37.0754 28.522 37.7467 28.1558 38.1699 27.4233C38.6012 26.6909 38.8169 25.7266 38.8169 24.5303V24.2739C38.8169 23.1021 38.6012 22.1458 38.1699 21.4053C37.7386 20.6647 37.0591 20.2944 36.1313 20.2944C35.2036 20.2944 34.5282 20.6647 34.105 21.4053C33.6818 22.1458 33.4702 23.1021 33.4702 24.2739V24.5303ZM43.2969 14.1055V11.957H48.7534V22.9922H49.5469L51.5977 20.0991L50.438 19.9404V17.792H56.9321V19.9404L55.3696 20.2944L52.9893 23.5659L56.3218 28.583L57.6768 28.8638V31H51.5732V28.8638L52.3057 28.7417L50.2793 25.4702H48.7534V28.4976L50.2915 28.8638V31H43.48V28.8638L45.2012 28.4976V14.4717L43.2969 14.1055ZM65.0132 31.2563C63.1089 31.2563 61.5871 30.646 60.4478 29.4253C59.3084 28.2046 58.7388 26.6543 58.7388 24.7744V24.2861C58.7388 22.3249 59.2759 20.7095 60.3501 19.4399C61.4325 18.1704 62.881 17.5397 64.6958 17.5479C66.478 17.5479 67.8615 18.085 68.8462 19.1592C69.8309 20.2334 70.3232 21.686 70.3232 23.5171V25.458H62.4375L62.4131 25.5312C62.4782 26.402 62.7671 27.1182 63.2798 27.6797C63.8006 28.2412 64.5046 28.522 65.3916 28.522C66.181 28.522 66.8361 28.4447 67.3569 28.29C67.8778 28.1273 68.4474 27.875 69.0659 27.5332L70.0303 29.7305C69.485 30.1618 68.777 30.5239 67.9062 30.8169C67.0436 31.1099 66.0793 31.2563 65.0132 31.2563ZM64.6958 20.2944C64.0366 20.2944 63.5158 20.5467 63.1333 21.0513C62.7508 21.5558 62.5148 22.2191 62.4253 23.041L62.4619 23.1021H66.832V22.7847C66.832 22.0278 66.653 21.4256 66.2949 20.978C65.945 20.5223 65.4119 20.2944 64.6958 20.2944ZM64.7935 12.6528H68.5654L68.5898 12.7261L65.2207 15.8999H62.3643L64.7935 12.6528ZM88.9268 22.333H86.5342L86.1558 20.6851C85.9116 20.4897 85.6024 20.327 85.228 20.1968C84.8618 20.0666 84.4549 20.0015 84.0073 20.0015C83.3807 20.0015 82.8843 20.1439 82.5181 20.4287C82.1519 20.7054 81.9688 21.0553 81.9688 21.4785C81.9688 21.8773 82.1437 22.2109 82.4937 22.4795C82.8436 22.7399 83.5435 22.9718 84.5933 23.1753C86.229 23.5008 87.4416 23.981 88.231 24.6157C89.0203 25.2424 89.415 26.109 89.415 27.2158C89.415 28.404 88.9023 29.3765 87.877 30.1333C86.8597 30.882 85.5169 31.2563 83.8486 31.2563C82.8314 31.2563 81.8955 31.1099 81.041 30.8169C80.1947 30.5158 79.4419 30.0885 78.7827 29.5352L78.7461 26.5688H81.2363L81.7246 28.29C81.9362 28.4691 82.2251 28.6034 82.5913 28.6929C82.9575 28.7743 83.34 28.8149 83.7388 28.8149C84.4631 28.8149 85.0124 28.6847 85.3867 28.4243C85.7692 28.1639 85.9604 27.8099 85.9604 27.3623C85.9604 26.9717 85.7692 26.634 85.3867 26.3491C85.0042 26.0643 84.3003 25.812 83.2749 25.5923C81.7205 25.2749 80.5446 24.807 79.7471 24.1885C78.9577 23.5618 78.563 22.7114 78.563 21.6372C78.563 20.5304 79.0187 19.5783 79.9302 18.7808C80.8416 17.9751 82.1396 17.5723 83.8242 17.5723C84.8496 17.5723 85.818 17.7106 86.7295 17.9873C87.6491 18.264 88.3693 18.618 88.8901 19.0493L88.9268 22.333ZM96.2754 14.5571V17.792H98.5947V20.2944H96.2754V27.0205C96.2754 27.5332 96.3812 27.8994 96.5928 28.1191C96.8044 28.3389 97.0892 28.4487 97.4473 28.4487C97.6914 28.4487 97.903 28.4406 98.082 28.4243C98.2692 28.3999 98.4767 28.3633 98.7046 28.3145L99.0098 30.8901C98.611 31.0122 98.2163 31.1017 97.8257 31.1587C97.4351 31.2238 97.0119 31.2563 96.5562 31.2563C95.3273 31.2563 94.3792 30.9186 93.7119 30.2432C93.0527 29.5677 92.7231 28.4976 92.7231 27.0327V20.2944H90.7822V17.792H92.7231V14.5571H96.2754ZM99.9741 24.2739C99.9741 22.3045 100.523 20.6932 101.622 19.4399C102.729 18.1785 104.255 17.5479 106.2 17.5479C108.153 17.5479 109.679 18.1745 110.777 19.4277C111.884 20.681 112.438 22.2964 112.438 24.2739V24.5303C112.438 26.516 111.884 28.1354 110.777 29.3887C109.679 30.6338 108.161 31.2563 106.224 31.2563C104.263 31.2563 102.729 30.6338 101.622 29.3887C100.523 28.1354 99.9741 26.516 99.9741 24.5303V24.2739ZM103.539 24.5303C103.539 25.7347 103.75 26.7031 104.173 27.4355C104.597 28.1598 105.28 28.522 106.224 28.522C107.144 28.522 107.815 28.1558 108.238 27.4233C108.67 26.6909 108.885 25.7266 108.885 24.5303V24.2739C108.885 23.1021 108.67 22.1458 108.238 21.4053C107.807 20.6647 107.127 20.2944 106.2 20.2944C105.272 20.2944 104.597 20.6647 104.173 21.4053C103.75 22.1458 103.539 23.1021 103.539 24.2739V24.5303ZM114.256 28.8638L115.965 28.4976V20.3066L114.073 19.9404V17.792H119.286L119.444 19.7207C119.754 19.0371 120.152 18.5041 120.641 18.1216C121.129 17.7391 121.694 17.5479 122.337 17.5479C122.525 17.5479 122.72 17.5641 122.923 17.5967C123.135 17.6211 123.31 17.6536 123.448 17.6943L123.07 20.9414L121.605 20.9048C121.084 20.9048 120.653 21.0065 120.311 21.21C119.969 21.4134 119.709 21.7023 119.53 22.0767V28.4976L121.239 28.8638V31H114.256V28.8638ZM130.589 31.2563C128.685 31.2563 127.163 30.646 126.024 29.4253C124.885 28.2046 124.315 26.6543 124.315 24.7744V24.2861C124.315 22.3249 124.852 20.7095 125.926 19.4399C127.009 18.1704 128.457 17.5397 130.272 17.5479C132.054 17.5479 133.438 18.085 134.422 19.1592C135.407 20.2334 135.899 21.686 135.899 23.5171V25.458H128.014L127.989 25.5312C128.054 26.402 128.343 27.1182 128.856 27.6797C129.377 28.2412 130.081 28.522 130.968 28.522C131.757 28.522 132.412 28.4447 132.933 28.29C133.454 28.1273 134.024 27.875 134.642 27.5332L135.606 29.7305C135.061 30.1618 134.353 30.5239 133.482 30.8169C132.62 31.1099 131.655 31.2563 130.589 31.2563ZM130.272 20.2944C129.613 20.2944 129.092 20.5467 128.709 21.0513C128.327 21.5558 128.091 22.2191 128.001 23.041L128.038 23.1021H132.408V22.7847C132.408 22.0278 132.229 21.4256 131.871 20.978C131.521 20.5223 130.988 20.2944 130.272 20.2944Z" fill="white"/>
</svg>
